<?xml version="1.0" standalone="no"?><!DOCTYPE svg PUBLIC "-//W3C//DTD SVG 1.1//EN" "http://www.w3.org/Graphics/SVG/1.1/DTD/svg11.dtd"><svg t="1527516803984" class="icon" style="" viewBox="0 0 1024 1024" version="1.1" xmlns="http://www.w3.org/2000/svg" p-id="2136" xmlns:xlink="http://www.w3.org/1999/xlink" width="128" height="128"><defs><style type="text/css"></style></defs><path d="M838.4 870.4c0 57.6-44.8 102.4-102.4 102.4h-448c-57.6 0-102.4-44.8-102.4-102.4v-723.2c0-57.6 44.8-102.4 102.4-102.4h448c57.6 0 102.4 44.8 102.4 102.4v723.2z m-57.6-716.8c0-25.6-19.2-44.8-44.8-44.8h-448c-25.6 0-44.8 19.2-44.8 44.8v723.2c0 25.6 19.2 44.8 44.8 44.8h448c25.6 0 44.8-19.2 44.8-44.8v-723.2z" fill="#2c2c2c" p-id="2137"></path><path d="M806.4 787.2h-588.8c-6.4 0-12.8-6.4-12.8-12.8s6.4-12.8 12.8-12.8h588.8c6.4 0 12.8 6.4 12.8 12.8s-6.4 12.8-12.8 12.8zM806.4 211.2h-588.8c-6.4 0-12.8-6.4-12.8-12.8s6.4-12.8 12.8-12.8h588.8c6.4 0 12.8 6.4 12.8 12.8s-6.4 12.8-12.8 12.8zM550.4 844.8c0 12.8-12.8 25.6-25.6 25.6h-6.4c-12.8 0-25.6-12.8-25.6-25.6v-6.4c0-12.8 12.8-25.6 25.6-25.6h6.4c12.8 0 25.6 12.8 25.6 25.6v6.4zM576 467.2c-12.8-6.4-19.2-12.8-12.8-19.2l6.4-12.8c0-6.4 12.8-12.8 19.2-6.4 6.4 0 12.8 12.8 6.4 19.2l-6.4 12.8s-6.4 6.4-12.8 6.4zM524.8 620.8c-6.4 0-6.4 0 0 0-12.8-6.4-19.2-12.8-12.8-19.2l38.4-115.2c0-6.4 12.8-12.8 19.2-6.4 6.4 0 12.8 12.8 6.4 19.2l-38.4 115.2c-6.4 6.4-6.4 6.4-12.8 6.4zM460.8 512c-12.8-6.4-19.2-12.8-12.8-19.2l57.6-172.8c0-6.4 12.8-12.8 19.2-6.4 6.4 0 12.8 12.8 6.4 19.2l-57.6 172.8c0 6.4-6.4 6.4-12.8 6.4zM435.2 595.2c-12.8-6.4-19.2-12.8-12.8-19.2l6.4-25.6c0-6.4 12.8-12.8 19.2-6.4 6.4 0 12.8 12.8 6.4 19.2l-6.4 25.6s-6.4 6.4-12.8 6.4z" fill="#2c2c2c" p-id="2138"></path></svg>